<?xml version="1.0" encoding="iso-8859-1"?>
<!-- Generator: Adobe Illustrator 19.0.0, SVG Export Plug-In . SVG Version: 6.00 Build 0)  -->
<svg version="1.1" id="Capa_1" xmlns="http://www.w3.org/2000/svg" xmlns:xlink="http://www.w3.org/1999/xlink" x="0px" y="0px"
	 viewBox="0 0 510.348 510.348" style="enable-background:new 0 0 510.348 510.348;" xml:space="preserve">
<g>
	<g>
		<path d="M325.227,172.325c-4.373-3.627-6.763-8.299-6.763-13.141c0-4.715,2.283-9.301,6.485-12.885
			c0.107-0.085,0.235-0.171,0.341-0.256c9.28-7.765,14.4-18.261,14.4-29.525c0-11.285-5.12-21.781-14.443-29.525
			c-4.501-3.733-11.221-3.157-15.019,1.365c-3.776,4.523-3.157,11.243,1.344,15.019c4.395,3.648,6.784,8.299,6.784,13.141
			c0,4.715-2.283,9.301-6.485,12.885c-0.107,0.085-0.213,0.171-0.32,0.256c-9.323,7.765-14.443,18.261-14.443,29.525
			c0,11.285,5.12,21.781,14.443,29.525c1.984,1.664,4.416,2.475,6.827,2.475c3.051,0,6.08-1.323,8.192-3.84
			C330.347,182.821,329.728,176.101,325.227,172.325z"/>
	</g>
</g>
<g>
	<g>
		<path d="M261.141,172.304c-4.373-3.605-6.784-8.277-6.784-13.12s2.411-9.515,6.784-13.163c9.323-7.765,14.443-18.24,14.443-29.525
			s-5.12-21.781-14.443-29.525c-4.523-3.776-11.264-3.157-15.019,1.365c-3.776,4.523-3.157,11.243,1.365,15.019
			c4.373,3.627,6.763,8.299,6.763,13.12c0,4.821-2.411,9.515-6.805,13.163c-9.28,7.787-14.421,18.283-14.421,29.547
			c0,11.285,5.141,21.781,14.443,29.525c2.005,1.664,4.416,2.475,6.827,2.475c3.072,0,6.101-1.301,8.213-3.84
			C266.283,182.821,265.664,176.08,261.141,172.304z"/>
	</g>
</g>
<g>
	<g>
		<path d="M197.227,172.325c-4.373-3.648-6.784-8.299-6.784-13.141s2.411-9.515,6.805-13.163
			c9.301-7.744,14.443-18.24,14.443-29.504c0-11.285-5.141-21.781-14.443-29.525c-4.544-3.776-11.264-3.157-15.019,1.365
			c-3.776,4.523-3.157,11.264,1.365,15.019c4.352,3.627,6.763,8.299,6.763,13.141c0,4.843-2.411,9.493-6.784,13.141
			c-9.323,7.765-14.464,18.261-14.464,29.525c0,11.285,5.12,21.781,14.443,29.525c2.005,1.664,4.416,2.475,6.827,2.475
			c3.072,0,6.101-1.323,8.213-3.84C202.368,182.821,201.749,176.101,197.227,172.325z"/>
	</g>
</g>
<g>
	<g>
		<path d="M1.813,319.952c0.448,0.149,0.896,0.149,1.323,0.363l42.667,21.333c5.269,2.645,7.403,9.045,4.779,14.315
			c-1.899,3.712-5.653,5.888-9.557,5.888c-1.6,0-3.221-0.363-4.757-1.131L0,342.587c7.339,32.085,42.304,62.357,103.36,75.84
			c25.237-55.595,29.525-136.853,29.888-177.877C60.992,256.635,14.379,297.787,1.813,319.952z M94.357,319.184
			c-5.888,0-10.667-4.779-10.667-10.667s4.779-10.667,10.667-10.667s10.667,4.779,10.667,10.667S100.245,319.184,94.357,319.184z"/>
	</g>
</g>
<g>
	<g>
		<path d="M509.952,412.283c0-0.021-14.763-52.16-19.371-69.632c-2.219-8.384-2.219-17.216,0-25.579
			c4.608-17.472,19.371-69.632,19.371-69.632c0.896-3.221,0.256-6.677-1.771-9.344c-1.984-2.688-5.163-4.245-8.491-4.245
			c-43.115,0-74.261,28.437-91.157,58.304c-44.032-25.429-129.472-58.304-213.995-58.304c-13.973,0-27.243,1.088-39.915,2.88
			c-0.021,39.936-3.541,123.947-29.653,185.557c15.659,2.24,32.555,3.563,51.008,3.563c95.616,0,186.88-32.832,232.341-58.155
			c16.661,29.781,47.787,58.155,91.371,58.155c3.328,0,6.507-1.557,8.491-4.224C510.208,418.96,510.848,415.504,509.952,412.283z
			 M178.901,355.195c-1.685,4.16-5.675,6.656-9.877,6.656c-1.344,0-2.688-0.256-4.011-0.789c-5.461-2.219-8.085-8.448-5.867-13.888
			c2.752-6.784,9.877-26.923,9.877-38.656c0-5.888,4.779-10.667,10.667-10.667s10.667,4.779,10.667,10.667
			C190.357,326.523,180.075,352.336,178.901,355.195z M221.568,355.195c-1.685,4.16-5.675,6.656-9.877,6.656
			c-1.344,0-2.688-0.256-4.011-0.789c-5.461-2.219-8.085-8.448-5.867-13.888c2.752-6.784,9.877-26.923,9.877-38.656
			c0-5.888,4.779-10.667,10.667-10.667s10.667,4.779,10.667,10.667C233.024,326.523,222.741,352.336,221.568,355.195z"/>
	</g>
</g>
<g>
</g>
<g>
</g>
<g>
</g>
<g>
</g>
<g>
</g>
<g>
</g>
<g>
</g>
<g>
</g>
<g>
</g>
<g>
</g>
<g>
</g>
<g>
</g>
<g>
</g>
<g>
</g>
<g>
</g>
</svg>
