<?xml version="1.0" encoding="iso-8859-1"?>
<!-- Generator: Adobe Illustrator 19.0.0, SVG Export Plug-In . SVG Version: 6.00 Build 0)  -->
<svg version="1.1" id="Capa_1" xmlns="http://www.w3.org/2000/svg" xmlns:xlink="http://www.w3.org/1999/xlink" x="0px" y="0px"
	 viewBox="0 0 512 512" style="enable-background:new 0 0 512 512;" xml:space="preserve">
<g>
	<g>
		<circle cx="298.7" cy="96.05" r="42.7"/>
	</g>
</g>
<g>
	<g>
		<path d="M447.9,148.75c0-0.4,0.1-0.8,0-1.2c-0.3-1.5-0.9-2.8-1.7-4c-0.1-0.2-0.3-0.3-0.4-0.5c-1-1.4-2.4-2.4-3.9-3.1
			c-0.3-0.1-0.4-0.4-0.6-0.5c-21.3-8.2-48.5-18-81.1-26.2c-7.5,26.9-32,46.8-61.4,46.8c-35.2,0-63.8-28.6-64-63.7
			c-3.5-0.1-7.2-0.3-10.7-0.3c-2.2,0-4.4,0.7-6.2,2L68.5,204.75c-0.2,0.2-0.3,0.5-0.6,0.7c-0.9,0.8-1.7,1.6-2.3,2.7
			c-0.3,0.5-0.4,0.9-0.6,1.4c-0.4,0.9-0.6,1.9-0.7,2.9c0,0.3-0.2,0.6-0.2,1v170.6c0,3.1,1.4,6.1,3.8,8.2c1.9,1.6,4.3,2.5,6.8,2.5
			c0.6,0,1.2-0.1,1.9-0.2l362.7-64c5.1-0.9,8.8-5.3,8.8-10.5v-170.7C448.1,149.15,447.9,148.95,447.9,148.75z M426.7,225.75
			l-341.4,60.3v-63.7l341.4-60.3V225.75z"/>
	</g>
</g>
<g>
	<g>
		<path d="M469.3,275.85v44.2c0,15.6-11.1,28.8-26.5,31.5l-38.8,6.8c-13,35.2-133.6,36.3-148,36.3c-16.7,0-33-0.7-48.3-2l-133,23.4
			c-7.5,0-14.8-2.7-20.6-7.5c-7.3-6.1-11.4-15-11.4-24.5l0.4-108.4C15.2,294.75,0,317.45,0,341.35c0,65.8,112.4,117.3,256,117.3
			s256-51.5,256-117.3C512,317.55,497,294.95,469.3,275.85z"/>
	</g>
</g>
<g>
</g>
<g>
</g>
<g>
</g>
<g>
</g>
<g>
</g>
<g>
</g>
<g>
</g>
<g>
</g>
<g>
</g>
<g>
</g>
<g>
</g>
<g>
</g>
<g>
</g>
<g>
</g>
<g>
</g>
</svg>
