<?xml version="1.0" encoding="iso-8859-1"?>
<!-- Generator: Adobe Illustrator 19.0.0, SVG Export Plug-In . SVG Version: 6.00 Build 0)  -->
<svg version="1.1" id="Capa_1" xmlns="http://www.w3.org/2000/svg" xmlns:xlink="http://www.w3.org/1999/xlink" x="0px" y="0px"
	 viewBox="0 0 510.622 510.622" style="enable-background:new 0 0 510.622 510.622;" xml:space="preserve">
<g>
	<g>
		<path d="M510.369,294.43C495.137,133.683,376.929,15.475,216.203,0.264c-24.512-2.453-47.339,12.373-55.467,35.755L0.609,496.456
			c-1.344,3.861-0.363,8.149,2.539,11.051c2.027,2.048,4.757,3.115,7.552,3.115c1.173,0,2.347-0.192,3.499-0.576l361.451-125.717
			c0.619-0.149,1.173-0.341,1.771-0.619l97.237-33.813C497.995,341.747,512.673,318.942,510.369,294.43z M27.979,482.632
			l27.307-78.485c27.819,1.024,50.155,23.36,51.179,51.2L27.979,482.632z M128.011,275.955c-8.939,0-17.813-2.005-26.112-5.803
			l41.621-119.68c28.117,7.019,48.491,32.021,48.491,61.483C192.011,247.24,163.297,275.955,128.011,275.955z M226.721,413.512
			c-8.619-12.48-13.376-26.645-13.376-41.557c0-41.173,33.493-74.667,74.667-74.667c39.445,0,71.531,30.848,74.176,69.099
			L226.721,413.512z M437.345,318.942c-0.299,0.021-0.576,0.043-0.875,0.043c-5.504,0-10.176-4.224-10.603-9.813
			c-9.728-119.787-103.68-214.144-223.445-224.32c-5.867-0.512-10.219-5.653-9.728-11.541c0.491-5.867,5.525-10.432,11.541-9.728
			c130.197,11.072,232.341,113.643,242.901,243.883C447.606,313.331,443.233,318.472,437.345,318.942z"/>
	</g>
</g>
<g>
</g>
<g>
</g>
<g>
</g>
<g>
</g>
<g>
</g>
<g>
</g>
<g>
</g>
<g>
</g>
<g>
</g>
<g>
</g>
<g>
</g>
<g>
</g>
<g>
</g>
<g>
</g>
<g>
</g>
</svg>
