<?xml version="1.0" encoding="iso-8859-1"?>
<!-- Generator: Adobe Illustrator 19.0.0, SVG Export Plug-In . SVG Version: 6.00 Build 0)  -->
<svg version="1.1" id="Capa_1" xmlns="http://www.w3.org/2000/svg" xmlns:xlink="http://www.w3.org/1999/xlink" x="0px" y="0px"
	 viewBox="0 0 512 512" style="enable-background:new 0 0 512 512;" xml:space="preserve">
<g>
	<g>
		<g>
			<path d="M437.333,234.473h-11.604c-3.672-24.115-19.033-57.896-49.063-63.211c-12.083-26.3-38.333-43.53-67.333-43.53
				c-12.333,0-24.292,3.002-35.042,8.725c-12.042-7.901-26.979-10.58-41-7.318c-3.979-13.155-16.208-22.755-30.625-22.755
				c-5.763,0-10.987,1.846-15.667,4.528l-4.708-79.872c-0.167-2.971-1.583-5.733-3.875-7.62c-2.292-1.897-5.271-2.794-8.229-2.325
				l-10.563,1.459c-5.625,0.771-9.646,5.817-9.167,11.477l8.413,98.811c-4.896,2.293-9.371,5.286-13.326,8.888L114.188,8.253
				c-1.271-5.368-6.313-8.975-11.854-8.131l-10.563,1.47c-3.021,0.417-5.729,2.126-7.417,4.68s-2.208,5.702-1.396,8.662
				l42.315,157.401c-22.902,5.989-39.94,26.688-39.94,51.463c0,3.604,0.698,7.15,1.436,10.674H74.667
				c-5.896,0-10.667,4.774-10.667,10.674v42.696c0,75.455,46.289,140.251,111.917,167.579
				c-15.819,9.271-26.583,26.272-26.583,45.903c0,5.9,4.771,10.674,10.667,10.674h192c5.896,0,10.667-4.774,10.667-10.674
				c0-19.631-10.764-36.632-26.583-45.903C401.711,428.095,448,363.299,448,287.844v-42.696
				C448,239.247,443.229,234.473,437.333,234.473z M157.104,381.26c-2.042,1.823-4.583,2.719-7.125,2.719
				c-2.917,0-5.833-1.198-7.938-3.552c-22.813-25.479-35.375-58.302-35.375-92.427c0-5.896,4.771-10.667,10.667-10.667
				c5.896,0,10.667,4.771,10.667,10.667c0,28.865,10.625,56.646,29.917,78.198C161.854,370.583,161.479,377.333,157.104,381.26z
				 M108.801,234.667c-1.263-3.441-2.134-6.974-2.134-10.667c0-17.646,14.354-32,32-32c5.896,0,10.667-4.771,10.667-10.667
				c0-17.646,14.354-32,32-32c5.896,0,10.667-4.771,10.667-10.667c0-5.885,4.792-10.667,10.667-10.667s10.667,4.781,10.667,10.667
				c0,0.792-0.417,2.104-0.813,3.271c-1.417,4.281,0,8.99,3.542,11.771c3.521,2.771,8.438,3.021,12.271,0.635
				c11.917-7.542,27.646-6.177,38.146,3.208c3.688,3.25,9.083,3.583,13.083,0.875c8.792-5.948,19.083-9.094,29.771-9.094
				c22.25,0,42.271,14.333,49.813,35.677c1.479,4.188,5.396,7.021,9.833,7.115c19.427,0.405,31.424,24.207,35.06,42.542H108.801z"/>
			<path d="M309.333,170.667H288c-5.896,0-10.667,4.771-10.667,10.667c0,5.896,4.771,10.667,10.667,10.667h21.333
				c5.896,0,10.667-4.771,10.667-10.667C320,175.438,315.229,170.667,309.333,170.667z"/>
			<path d="M356.771,203.792l-21.333-10.667c-5.292-2.594-11.646-0.51-14.313,4.771c-2.625,5.271-0.5,11.677,4.771,14.313
				l21.333,10.667c1.542,0.76,3.167,1.125,4.771,1.125c3.896,0,7.667-2.156,9.542-5.896
				C364.167,212.833,362.042,206.427,356.771,203.792z"/>
			<path d="M266.667,192h-21.333c-5.896,0-10.667,4.771-10.667,10.667c0,5.896,4.771,10.667,10.667,10.667h21.333
				c5.896,0,10.667-4.771,10.667-10.667C277.333,196.771,272.563,192,266.667,192z"/>
		</g>
	</g>
</g>
<g>
</g>
<g>
</g>
<g>
</g>
<g>
</g>
<g>
</g>
<g>
</g>
<g>
</g>
<g>
</g>
<g>
</g>
<g>
</g>
<g>
</g>
<g>
</g>
<g>
</g>
<g>
</g>
<g>
</g>
</svg>
