<?xml version="1.0" encoding="iso-8859-1"?>
<!-- Generator: Adobe Illustrator 19.0.0, SVG Export Plug-In . SVG Version: 6.00 Build 0)  -->
<svg version="1.1" id="Capa_1" xmlns="http://www.w3.org/2000/svg" xmlns:xlink="http://www.w3.org/1999/xlink" x="0px" y="0px"
	 viewBox="0 0 512 512" style="enable-background:new 0 0 512 512;" xml:space="preserve">
<g>
	<g>
		<path d="M501.333,405.333h-64.146v-65.078c30.206-5.115,53.333-31.283,53.333-62.922V224c0-5.896-4.771-10.667-10.667-10.667
			h-42.667c-5.896,0-10.667,4.771-10.667,10.667v32c0,23.823-9.854,46.031-27.76,62.521c-2.667,2.458-3.896,6.094-3.281,9.667
			c0.625,3.573,3.01,6.583,6.354,8c4.607,1.952,9.299,3.197,14.021,4.039v65.107h-64v-86.411
			c30.206-5.115,53.333-31.283,53.333-62.922v-53.333c0-5.896-4.771-10.667-10.667-10.667H287.854
			c-5.896,0-10.667,4.771-10.667,10.667V256c0,31.639,23.128,57.807,53.333,62.922v86.411H256v-32v-68.74
			c0-6.229-0.24-11.99-0.656-17.406c-2.802-36.552-14.5-56.677-25.813-76.146c-13.188-22.708-25.656-44.156-27.01-94V64
			c5.896,0,10.667-4.771,10.667-10.667c0-5.896-4.771-10.667-10.667-10.667V32c0-5.896-4.771-10.667-10.667-10.667h-42.667
			c-5.896,0-10.667,4.771-10.667,10.667v10.667c-5.896,0-10.667,4.771-10.667,10.667c0,5.896,4.771,10.667,10.667,10.667v53.042
			c-1.354,49.854-13.75,71.302-26.875,94.021c-11.24,19.458-22.875,39.583-25.656,76.125c-0.417,5.417-0.656,11.177-0.656,17.406
			v68.74v32H10.667C4.771,405.333,0,410.104,0,416c0,41.167,33.5,74.667,74.667,74.667h362.667C478.5,490.667,512,457.167,512,416
			C512,410.104,507.229,405.333,501.333,405.333z M159.854,64h21.333v42.667h-21.333V64z M234.667,362.667h-128v-58.073
			c0-2.121,0.164-3.921,0.223-5.927h127.555c0.059,2.006,0.223,3.806,0.223,5.927V362.667z"/>
	</g>
</g>
<g>
</g>
<g>
</g>
<g>
</g>
<g>
</g>
<g>
</g>
<g>
</g>
<g>
</g>
<g>
</g>
<g>
</g>
<g>
</g>
<g>
</g>
<g>
</g>
<g>
</g>
<g>
</g>
<g>
</g>
</svg>
